<mxfile host="Electron" modified="2023-07-22T09:16:53.757Z" agent="Mozilla/5.0 (Macintosh; Intel Mac OS X 10_15_7) AppleWebKit/537.36 (KHTML, like Gecko) draw.io/21.6.1 Chrome/112.0.5615.204 Electron/24.6.1 Safari/537.36" etag="Fi56LpazI14UqMAY5Kg1" version="21.6.1" type="device">
  <diagram name="第 1 页" id="4NOU7wdEWxm20PrpenoO">
    <mxGraphModel dx="1312" dy="883" grid="1" gridSize="10" guides="1" tooltips="1" connect="1" arrows="1" fold="1" page="0" pageScale="1" pageWidth="1169" pageHeight="1654" math="0" shadow="0">
      <root>
        <mxCell id="0" />
        <mxCell id="1" parent="0" />
        <mxCell id="iYvYhVMVUZi9X2GfowWt-1" value="关卡系统" style="swimlane;whiteSpace=wrap;html=1;fontSize=16;fillColor=#e1d5e7;strokeColor=#9673a6;" parent="1" vertex="1">
          <mxGeometry x="-40" width="440" height="120" as="geometry" />
        </mxCell>
        <mxCell id="zfapHkokgW_8U24ElMoX-3" value="常驻资源本" style="rounded=0;whiteSpace=wrap;html=1;fontSize=16;fillColor=#e1d5e7;strokeColor=#9673a6;" vertex="1" parent="iYvYhVMVUZi9X2GfowWt-1">
          <mxGeometry x="20" y="40" width="120" height="60" as="geometry" />
        </mxCell>
        <mxCell id="zfapHkokgW_8U24ElMoX-6" value="忘却之庭" style="rounded=0;whiteSpace=wrap;html=1;fontSize=16;fillColor=#e1d5e7;strokeColor=#9673a6;" vertex="1" parent="iYvYhVMVUZi9X2GfowWt-1">
          <mxGeometry x="160" y="40" width="120" height="60" as="geometry" />
        </mxCell>
        <mxCell id="zfapHkokgW_8U24ElMoX-2" value="模拟宇宙" style="rounded=0;whiteSpace=wrap;html=1;fontSize=16;fillColor=#e1d5e7;strokeColor=#9673a6;" vertex="1" parent="iYvYhVMVUZi9X2GfowWt-1">
          <mxGeometry x="300" y="40" width="120" height="60" as="geometry" />
        </mxCell>
        <mxCell id="zfapHkokgW_8U24ElMoX-11" value="角色系统" style="swimlane;whiteSpace=wrap;html=1;fontSize=16;fillColor=#fff2cc;strokeColor=#d6b656;" vertex="1" parent="1">
          <mxGeometry x="-40" y="340" width="480" height="190" as="geometry" />
        </mxCell>
        <mxCell id="zfapHkokgW_8U24ElMoX-22" value="角色" style="swimlane;whiteSpace=wrap;html=1;fontSize=16;fillColor=#fff2cc;strokeColor=#d6b656;" vertex="1" parent="zfapHkokgW_8U24ElMoX-11">
          <mxGeometry x="20" y="40" width="100" height="130" as="geometry" />
        </mxCell>
        <mxCell id="zfapHkokgW_8U24ElMoX-84" value="&lt;font style=&quot;font-size: 12px;&quot;&gt;- 游戏货币&lt;br&gt;- 角色晋阶材料&lt;br style=&quot;border-color: var(--border-color);&quot;&gt;- 角色经验材料&lt;/font&gt;" style="text;html=1;strokeColor=none;fillColor=none;align=center;verticalAlign=middle;whiteSpace=wrap;rounded=0;fontSize=16;" vertex="1" parent="zfapHkokgW_8U24ElMoX-22">
          <mxGeometry y="25" width="100" height="105" as="geometry" />
        </mxCell>
        <mxCell id="zfapHkokgW_8U24ElMoX-27" value="光锥" style="swimlane;whiteSpace=wrap;html=1;fontSize=16;fillColor=#fff2cc;strokeColor=#d6b656;" vertex="1" parent="zfapHkokgW_8U24ElMoX-11">
          <mxGeometry x="130" y="40" width="100" height="130" as="geometry" />
        </mxCell>
        <mxCell id="zfapHkokgW_8U24ElMoX-28" value="&lt;span style=&quot;font-size: 12px;&quot;&gt;- 游戏货币&lt;br&gt;- 光锥升级材料&lt;br&gt;- 行迹材料&lt;br&gt;&lt;/span&gt;" style="text;html=1;strokeColor=none;fillColor=none;align=center;verticalAlign=middle;whiteSpace=wrap;rounded=0;fontSize=16;" vertex="1" parent="zfapHkokgW_8U24ElMoX-27">
          <mxGeometry y="25" width="100" height="105" as="geometry" />
        </mxCell>
        <mxCell id="zfapHkokgW_8U24ElMoX-77" value="遗器" style="swimlane;whiteSpace=wrap;html=1;fontSize=16;fillColor=#fff2cc;strokeColor=#d6b656;" vertex="1" parent="zfapHkokgW_8U24ElMoX-11">
          <mxGeometry x="350" y="40" width="100" height="130" as="geometry" />
        </mxCell>
        <mxCell id="zfapHkokgW_8U24ElMoX-79" value="&lt;div style=&quot;&quot;&gt;&lt;span style=&quot;font-size: 12px; background-color: initial;&quot;&gt;- 游戏货币&lt;/span&gt;&lt;/div&gt;&lt;div style=&quot;&quot;&gt;&lt;span style=&quot;font-size: 12px; background-color: initial;&quot;&gt;- 遗器&lt;/span&gt;&lt;/div&gt;&lt;div style=&quot;&quot;&gt;&lt;span style=&quot;font-size: 12px; background-color: initial;&quot;&gt;- 遗器经验材料&lt;/span&gt;&lt;/div&gt;" style="text;html=1;strokeColor=none;fillColor=none;align=center;verticalAlign=middle;whiteSpace=wrap;rounded=0;fontSize=16;" vertex="1" parent="zfapHkokgW_8U24ElMoX-77">
          <mxGeometry y="25" width="100" height="105" as="geometry" />
        </mxCell>
        <mxCell id="zfapHkokgW_8U24ElMoX-73" value="行迹" style="swimlane;whiteSpace=wrap;html=1;fontSize=16;fillColor=#fff2cc;strokeColor=#d6b656;" vertex="1" parent="zfapHkokgW_8U24ElMoX-11">
          <mxGeometry x="240" y="40" width="100" height="130" as="geometry" />
        </mxCell>
        <mxCell id="zfapHkokgW_8U24ElMoX-74" value="&lt;font style=&quot;font-size: 12px;&quot;&gt;- 游戏货币&lt;br&gt;-行迹材料&lt;br&gt;&lt;/font&gt;" style="text;html=1;strokeColor=none;fillColor=none;align=center;verticalAlign=middle;whiteSpace=wrap;rounded=0;fontSize=16;" vertex="1" parent="zfapHkokgW_8U24ElMoX-73">
          <mxGeometry y="25" width="100" height="105" as="geometry" />
        </mxCell>
        <mxCell id="zfapHkokgW_8U24ElMoX-18" value="&lt;font style=&quot;font-size: 12px;&quot;&gt;+ 游戏货币&lt;br&gt;+ 角色晋阶材料&lt;br&gt;+ 角色经验材料&lt;br&gt;+ 光锥经验材料&lt;br style=&quot;border-color: var(--border-color);&quot;&gt;+ 遗器&lt;br&gt;+ 行迹材料&lt;br&gt;&lt;/font&gt;" style="text;html=1;strokeColor=none;fillColor=none;align=center;verticalAlign=middle;whiteSpace=wrap;rounded=0;fontSize=16;" vertex="1" parent="1">
          <mxGeometry x="-30" y="130" width="100" height="170" as="geometry" />
        </mxCell>
        <mxCell id="zfapHkokgW_8U24ElMoX-37" value="商店系统" style="swimlane;whiteSpace=wrap;html=1;fontSize=16;fillColor=#d5e8d4;strokeColor=#82b366;" vertex="1" parent="1">
          <mxGeometry x="480" y="45" width="160" height="300" as="geometry" />
        </mxCell>
        <mxCell id="zfapHkokgW_8U24ElMoX-38" value="黑塔的商店" style="rounded=0;whiteSpace=wrap;html=1;fontSize=16;fillColor=#d5e8d4;strokeColor=#82b366;" vertex="1" parent="zfapHkokgW_8U24ElMoX-37">
          <mxGeometry x="30" y="40" width="100" height="50" as="geometry" />
        </mxCell>
        <mxCell id="zfapHkokgW_8U24ElMoX-39" value="光锥呈现" style="rounded=0;whiteSpace=wrap;html=1;fontSize=16;fillColor=#d5e8d4;strokeColor=#82b366;" vertex="1" parent="zfapHkokgW_8U24ElMoX-37">
          <mxGeometry x="30" y="100" width="100" height="50" as="geometry" />
        </mxCell>
        <mxCell id="zfapHkokgW_8U24ElMoX-43" value="星芒兑换" style="rounded=0;whiteSpace=wrap;html=1;fontSize=16;fillColor=#d5e8d4;strokeColor=#82b366;" vertex="1" parent="zfapHkokgW_8U24ElMoX-37">
          <mxGeometry x="30" y="170" width="100" height="50" as="geometry" />
        </mxCell>
        <mxCell id="zfapHkokgW_8U24ElMoX-44" value="余烬兑换" style="rounded=0;whiteSpace=wrap;html=1;fontSize=16;fillColor=#d5e8d4;strokeColor=#82b366;" vertex="1" parent="zfapHkokgW_8U24ElMoX-37">
          <mxGeometry x="30" y="230" width="100" height="50" as="geometry" />
        </mxCell>
        <mxCell id="zfapHkokgW_8U24ElMoX-87" value="" style="group" vertex="1" connectable="0" parent="zfapHkokgW_8U24ElMoX-37">
          <mxGeometry x="20" y="160" width="120" height="130" as="geometry" />
        </mxCell>
        <mxCell id="zfapHkokgW_8U24ElMoX-48" value="" style="endArrow=none;dashed=1;html=1;rounded=0;fontSize=12;startSize=8;endSize=8;curved=1;" edge="1" parent="zfapHkokgW_8U24ElMoX-87">
          <mxGeometry width="50" height="50" relative="1" as="geometry">
            <mxPoint x="120" y="130" as="sourcePoint" />
            <mxPoint x="120" as="targetPoint" />
          </mxGeometry>
        </mxCell>
        <mxCell id="zfapHkokgW_8U24ElMoX-50" value="" style="endArrow=none;dashed=1;html=1;rounded=0;fontSize=12;startSize=8;endSize=8;curved=1;" edge="1" parent="zfapHkokgW_8U24ElMoX-87">
          <mxGeometry width="50" height="50" relative="1" as="geometry">
            <mxPoint x="120" y="130" as="sourcePoint" />
            <mxPoint y="130" as="targetPoint" />
          </mxGeometry>
        </mxCell>
        <mxCell id="zfapHkokgW_8U24ElMoX-53" style="edgeStyle=none;curved=1;rounded=0;orthogonalLoop=1;jettySize=auto;html=1;exitX=0.5;exitY=1;exitDx=0;exitDy=0;fontSize=12;startSize=8;endSize=8;" edge="1" parent="1" source="zfapHkokgW_8U24ElMoX-45">
          <mxGeometry relative="1" as="geometry">
            <mxPoint x="290" y="350" as="targetPoint" />
          </mxGeometry>
        </mxCell>
        <mxCell id="zfapHkokgW_8U24ElMoX-45" value="卡池" style="whiteSpace=wrap;html=1;fontSize=16;fillColor=#ffe6cc;strokeColor=#d79b00;" vertex="1" parent="1">
          <mxGeometry x="230" y="210" width="120" height="60" as="geometry" />
        </mxCell>
        <mxCell id="zfapHkokgW_8U24ElMoX-47" value="" style="endArrow=none;dashed=1;html=1;rounded=0;fontSize=12;startSize=8;endSize=8;curved=1;" edge="1" parent="1">
          <mxGeometry width="50" height="50" relative="1" as="geometry">
            <mxPoint x="500" y="330" as="sourcePoint" />
            <mxPoint x="500" y="200" as="targetPoint" />
          </mxGeometry>
        </mxCell>
        <mxCell id="zfapHkokgW_8U24ElMoX-49" value="" style="endArrow=none;dashed=1;html=1;rounded=0;fontSize=12;startSize=8;endSize=8;curved=1;" edge="1" parent="1">
          <mxGeometry width="50" height="50" relative="1" as="geometry">
            <mxPoint x="620" y="200" as="sourcePoint" />
            <mxPoint x="500" y="200" as="targetPoint" />
          </mxGeometry>
        </mxCell>
        <mxCell id="zfapHkokgW_8U24ElMoX-52" value="" style="endArrow=classic;html=1;rounded=0;fontSize=12;startSize=8;endSize=8;curved=1;exitX=1;exitY=0.5;exitDx=0;exitDy=0;" edge="1" parent="1" source="zfapHkokgW_8U24ElMoX-45">
          <mxGeometry width="50" height="50" relative="1" as="geometry">
            <mxPoint x="420" y="210" as="sourcePoint" />
            <mxPoint x="500" y="240" as="targetPoint" />
          </mxGeometry>
        </mxCell>
        <mxCell id="zfapHkokgW_8U24ElMoX-54" value="" style="endArrow=none;html=1;rounded=0;fontSize=12;startSize=8;endSize=8;curved=1;entryX=0.5;entryY=1;entryDx=0;entryDy=0;" edge="1" parent="1" target="zfapHkokgW_8U24ElMoX-2">
          <mxGeometry width="50" height="50" relative="1" as="geometry">
            <mxPoint x="320" y="110" as="sourcePoint" />
            <mxPoint x="400" y="210" as="targetPoint" />
          </mxGeometry>
        </mxCell>
        <mxCell id="zfapHkokgW_8U24ElMoX-56" value="" style="endArrow=classic;html=1;rounded=0;fontSize=12;startSize=8;endSize=8;curved=1;entryX=0;entryY=0.5;entryDx=0;entryDy=0;" edge="1" parent="1" target="zfapHkokgW_8U24ElMoX-38">
          <mxGeometry width="50" height="50" relative="1" as="geometry">
            <mxPoint x="320" y="110" as="sourcePoint" />
            <mxPoint x="460" y="110" as="targetPoint" />
          </mxGeometry>
        </mxCell>
        <mxCell id="zfapHkokgW_8U24ElMoX-62" value="" style="endArrow=classic;html=1;rounded=0;fontSize=12;startSize=8;endSize=8;curved=1;entryX=0;entryY=0.5;entryDx=0;entryDy=0;" edge="1" parent="1" target="zfapHkokgW_8U24ElMoX-39">
          <mxGeometry width="50" height="50" relative="1" as="geometry">
            <mxPoint x="180" y="170" as="sourcePoint" />
            <mxPoint x="320" y="70" as="targetPoint" />
          </mxGeometry>
        </mxCell>
        <mxCell id="zfapHkokgW_8U24ElMoX-63" value="" style="endArrow=none;html=1;rounded=0;fontSize=12;startSize=8;endSize=8;curved=1;exitX=0.5;exitY=1;exitDx=0;exitDy=0;" edge="1" parent="1" source="zfapHkokgW_8U24ElMoX-6">
          <mxGeometry width="50" height="50" relative="1" as="geometry">
            <mxPoint x="190" y="100" as="sourcePoint" />
            <mxPoint x="180" y="170" as="targetPoint" />
          </mxGeometry>
        </mxCell>
        <mxCell id="zfapHkokgW_8U24ElMoX-64" value="" style="endArrow=classic;html=1;rounded=0;fontSize=12;startSize=8;endSize=8;curved=1;" edge="1" parent="1">
          <mxGeometry width="50" height="50" relative="1" as="geometry">
            <mxPoint x="560" y="450" as="sourcePoint" />
            <mxPoint x="450" y="450" as="targetPoint" />
          </mxGeometry>
        </mxCell>
        <mxCell id="zfapHkokgW_8U24ElMoX-65" value="" style="endArrow=none;html=1;rounded=0;fontSize=12;startSize=8;endSize=8;curved=1;entryX=0.5;entryY=1;entryDx=0;entryDy=0;" edge="1" parent="1" target="zfapHkokgW_8U24ElMoX-37">
          <mxGeometry width="50" height="50" relative="1" as="geometry">
            <mxPoint x="560" y="450" as="sourcePoint" />
            <mxPoint x="460" y="230" as="targetPoint" />
          </mxGeometry>
        </mxCell>
        <mxCell id="zfapHkokgW_8U24ElMoX-67" value="&lt;font style=&quot;font-size: 12px;&quot;&gt;玩家在游戏体验中的正反馈&lt;/font&gt;" style="text;html=1;strokeColor=none;fillColor=none;align=center;verticalAlign=middle;whiteSpace=wrap;rounded=0;fontSize=16;" vertex="1" parent="1">
          <mxGeometry x="120" y="180" width="80" height="90" as="geometry" />
        </mxCell>
        <mxCell id="zfapHkokgW_8U24ElMoX-71" value="" style="endArrow=classic;html=1;rounded=0;fontSize=12;startSize=8;endSize=8;curved=1;exitX=0.333;exitY=0.011;exitDx=0;exitDy=0;exitPerimeter=0;" edge="1" parent="1" source="zfapHkokgW_8U24ElMoX-11">
          <mxGeometry width="50" height="50" relative="1" as="geometry">
            <mxPoint x="140" y="280" as="sourcePoint" />
            <mxPoint x="119" y="120" as="targetPoint" />
          </mxGeometry>
        </mxCell>
        <mxCell id="zfapHkokgW_8U24ElMoX-72" value="" style="endArrow=classic;html=1;rounded=0;fontSize=12;startSize=8;endSize=8;curved=1;entryX=0.25;entryY=0;entryDx=0;entryDy=0;" edge="1" parent="1" target="zfapHkokgW_8U24ElMoX-11">
          <mxGeometry width="50" height="50" relative="1" as="geometry">
            <mxPoint x="80" y="120" as="sourcePoint" />
            <mxPoint x="190" y="230" as="targetPoint" />
          </mxGeometry>
        </mxCell>
        <mxCell id="zfapHkokgW_8U24ElMoX-80" value="&lt;span style=&quot;font-size: 12px;&quot;&gt;+ 角色&lt;br&gt;+ 光锥&lt;br&gt;&lt;/span&gt;" style="text;html=1;strokeColor=none;fillColor=none;align=center;verticalAlign=middle;whiteSpace=wrap;rounded=0;fontSize=16;" vertex="1" parent="1">
          <mxGeometry x="280" y="290" width="80" height="30" as="geometry" />
        </mxCell>
        <mxCell id="zfapHkokgW_8U24ElMoX-81" value="&lt;span style=&quot;font-size: 12px;&quot;&gt;+ 星芒&lt;br&gt;+ 余烬&lt;br&gt;&lt;/span&gt;" style="text;html=1;strokeColor=none;fillColor=none;align=center;verticalAlign=middle;whiteSpace=wrap;rounded=0;fontSize=16;" vertex="1" parent="1">
          <mxGeometry x="370" y="250" width="80" height="30" as="geometry" />
        </mxCell>
        <mxCell id="zfapHkokgW_8U24ElMoX-83" value="&lt;span style=&quot;font-size: 12px;&quot;&gt;+ 游戏资源&lt;br&gt;+ 光锥&lt;br&gt;&lt;/span&gt;" style="text;html=1;strokeColor=none;fillColor=none;align=center;verticalAlign=middle;whiteSpace=wrap;rounded=0;fontSize=16;" vertex="1" parent="1">
          <mxGeometry x="470" y="390" width="80" height="30" as="geometry" />
        </mxCell>
        <mxCell id="zfapHkokgW_8U24ElMoX-86" value="&lt;span style=&quot;font-size: 12px;&quot;&gt;+ 流光余晖&lt;br&gt;&lt;/span&gt;" style="text;html=1;strokeColor=none;fillColor=none;align=center;verticalAlign=middle;whiteSpace=wrap;rounded=0;fontSize=16;" vertex="1" parent="1">
          <mxGeometry x="260" y="130" width="80" height="30" as="geometry" />
        </mxCell>
        <mxCell id="zfapHkokgW_8U24ElMoX-88" value="&lt;span style=&quot;font-size: 12px;&quot;&gt;+ 命运的足迹&lt;br&gt;+ 黑塔债券&lt;br&gt;&lt;/span&gt;" style="text;html=1;strokeColor=none;fillColor=none;align=center;verticalAlign=middle;whiteSpace=wrap;rounded=0;fontSize=16;" vertex="1" parent="1">
          <mxGeometry x="400" y="70" width="80" height="30" as="geometry" />
        </mxCell>
      </root>
    </mxGraphModel>
  </diagram>
</mxfile>
